<svg width="19" height="15" viewBox="0 0 19 15" fill="none" xmlns="http://www.w3.org/2000/svg">
<path opacity="0.3" d="M18.3035 2.01288C17.6285 2.29852 16.9126 2.48604 16.1795 2.56923C16.9419 2.13136 17.5284 1.43938 17.8044 0.613646C17.0785 1.02533 16.2843 1.31538 15.4562 1.47125C14.7572 0.757859 13.7798 0.353778 12.7573 0.355474C10.7159 0.355474 9.05901 1.93748 9.05901 3.88899C9.05901 4.16629 9.09167 4.43655 9.15561 4.69462C6.08179 4.54701 3.35755 3.14075 1.53327 1.00239C1.21473 1.52368 1.03304 2.13136 1.03304 2.77915C1.03304 4.00462 1.68564 5.08643 2.6777 5.72027C2.09034 5.70306 1.51585 5.55148 1.00245 5.27822V5.32329C1.00245 7.03498 2.27729 8.46334 3.96818 8.78866C3.4236 8.92959 2.85262 8.95026 2.29845 8.84911C2.76924 10.2533 4.13538 11.2748 5.7529 11.3044C4.48749 12.2507 2.8932 12.8168 1.16022 12.8168C0.865549 12.8164 0.571135 12.7999 0.278442 12.7673C1.91482 13.7697 3.85905 14.3555 5.94724 14.3555C12.7492 14.3555 16.4681 8.96957 16.4681 4.29895C16.4681 4.14618 16.4681 3.99341 16.4566 3.84173C17.1803 3.34134 17.8052 2.72211 18.3023 2.01288H18.3035Z" fill="white"/>
</svg>
